<?xml version="1.0" standalone="no"?>
<!DOCTYPE svg PUBLIC "-//W3C//DTD SVG 20010904//EN"
 "http://www.w3.org/TR/2001/REC-SVG-20010904/DTD/svg10.dtd">
<svg version="1.0" xmlns="http://www.w3.org/2000/svg"
 width="600.000000pt" height="600.000000pt" viewBox="0 0 600.000000 600.000000"
 preserveAspectRatio="xMidYMid meet">
<metadata>
Created by potrace 1.14, written by Peter Selinger 2001-2017
</metadata>
<g transform="translate(0.000000,600.000000) scale(0.100000,-0.100000)"
fill="#000000" stroke="none">
<path d="M4915 5308 c-11 -6 -22 -14 -25 -17 -5 -6 -69 -41 -117 -65 -13 -6
-23 -14 -23 -18 0 -5 -9 -8 -20 -8 -11 0 -20 -4 -20 -8 0 -10 -50 -37 -62 -34
-5 1 -8 -2 -8 -8 0 -6 -5 -10 -10 -10 -6 0 -36 -16 -66 -35 -30 -19 -56 -35
-59 -35 -2 0 -39 -20 -81 -45 -41 -25 -80 -45 -85 -45 -5 0 -9 -5 -9 -11 0 -5
-4 -7 -10 -4 -5 3 -10 1 -10 -4 0 -6 -4 -11 -9 -11 -12 0 -155 -83 -159 -92
-2 -5 -9 -8 -16 -8 -7 0 -21 -9 -31 -20 -10 -11 -20 -18 -23 -15 -2 2 -13 -6
-23 -18 -10 -12 -18 -18 -19 -14 0 4 -11 -2 -24 -15 -13 -13 -44 -42 -68 -64
-56 -52 -147 -165 -179 -222 -13 -24 -25 -38 -28 -30 -2 7 -8 24 -14 38 -6 14
-11 27 -12 30 -1 3 -9 23 -19 45 -10 22 -19 45 -20 50 -1 6 -10 27 -19 49 -9
21 -17 45 -17 52 0 8 -4 14 -10 14 -5 0 -9 3 -8 8 2 4 -13 48 -33 97 -35 85
-50 124 -54 135 -1 3 -8 19 -15 35 -8 17 -14 38 -15 48 -4 39 -69 126 -84 112
-2 -3 -10 0 -18 7 -7 6 -16 8 -19 5 -3 -3 -17 -2 -30 3 -16 7 -24 6 -24 -1 0
-8 -4 -8 -13 0 -8 6 -17 8 -20 4 -4 -3 -33 -7 -64 -9 -32 -1 -58 -3 -58 -4 0
-1 -25 -3 -55 -4 -31 -1 -61 -5 -67 -9 -7 -4 -15 -3 -18 3 -4 7 -11 7 -18 2
-7 -5 -20 -8 -29 -7 -10 2 -27 -9 -38 -23 -11 -15 -24 -32 -30 -39 -5 -7 -10
-15 -10 -18 0 -8 -42 -68 -53 -76 -5 -3 -9 -10 -9 -15 -1 -10 -49 -86 -60 -94
-4 -3 -13 -17 -20 -30 -24 -45 -211 -325 -220 -328 -4 -2 -6 -8 -2 -13 3 -5 0
-9 -5 -9 -6 0 -11 -7 -11 -15 0 -8 -4 -15 -10 -15 -5 0 -10 -7 -10 -15 0 -8
-4 -15 -10 -15 -5 0 -10 -6 -10 -14 0 -8 -3 -16 -7 -18 -10 -4 -43 -53 -62
-90 -8 -16 -18 -28 -23 -28 -4 0 -8 -7 -8 -15 0 -8 -4 -15 -10 -15 -5 0 -10
-7 -10 -15 0 -9 -7 -18 -15 -21 -8 -4 -15 -11 -15 -18 0 -6 -27 -51 -60 -99
-33 -47 -60 -91 -60 -96 0 -15 -47 -44 -60 -36 -5 3 -18 8 -27 10 -10 2 -49
13 -88 25 -38 11 -77 22 -85 25 -8 2 -17 4 -20 5 -3 1 -9 3 -15 4 -12 2 -65
16 -83 22 -7 2 -13 3 -15 3 -1 0 -29 10 -62 21 -33 11 -61 20 -62 20 -2 0 -4
0 -5 1 -2 0 -16 3 -33 5 -16 3 -34 9 -40 15 -24 24 -65 -9 -94 -76 -2 -5 -9
-15 -15 -21 -6 -7 -24 -36 -41 -64 -16 -29 -38 -61 -47 -71 -10 -11 -17 -20
-16 -21 1 -2 -10 -21 -24 -43 -14 -22 -31 -57 -39 -77 -7 -21 -17 -38 -22 -38
-5 0 -7 -6 -4 -14 3 -8 3 -17 -1 -20 -8 -8 -11 -29 -16 -88 -4 -55 17 -97 61
-125 15 -10 30 -20 33 -23 3 -3 33 -26 68 -49 34 -24 62 -48 62 -52 0 -5 6 -9
13 -9 12 0 43 -23 94 -67 14 -13 29 -23 34 -23 4 0 14 -6 21 -13 7 -7 28 -23
46 -36 33 -23 34 -27 16 -96 -9 -38 -45 -96 -81 -130 -33 -32 -164 -98 -172
-87 -4 4 -13 8 -21 10 -8 2 -16 8 -18 13 -2 5 -10 9 -18 9 -8 0 -14 4 -14 8 0
5 -16 14 -35 22 -19 8 -35 17 -35 22 0 4 -7 8 -15 8 -8 0 -15 5 -15 11 0 5 -5
7 -10 4 -5 -3 -10 -2 -10 4 0 6 -11 13 -25 17 -14 3 -25 10 -25 15 0 5 -6 9
-13 9 -7 0 -23 9 -35 20 -12 11 -27 20 -35 20 -7 0 -17 3 -21 7 -9 10 -86 11
-86 1 0 -4 -5 -8 -11 -8 -6 0 -23 -9 -39 -20 -15 -11 -30 -17 -34 -13 -3 3 -6
1 -6 -5 0 -7 -7 -12 -15 -12 -7 0 -19 -8 -24 -17 -6 -10 -11 -14 -11 -9 0 4
-11 1 -25 -8 -14 -9 -25 -13 -25 -9 0 5 -5 0 -11 -9 -5 -10 -17 -18 -25 -18
-17 0 -30 -30 -39 -87 -3 -21 -7 -50 -10 -63 -12 -63 -28 -147 -31 -165 -1
-11 -7 -44 -13 -74 -10 -48 -22 -140 -23 -166 -2 -95 35 -258 65 -290 7 -7 19
-22 27 -34 16 -24 80 -67 93 -63 4 1 7 -3 7 -8 0 -6 9 -10 19 -10 11 0 23 -5
26 -10 4 -6 10 -8 14 -6 4 3 57 -10 117 -29 60 -19 117 -35 126 -35 10 0 18
-4 18 -8 0 -4 8 -8 18 -9 16 -1 162 -45 202 -60 8 -3 20 -7 25 -8 6 -1 12 -3
15 -4 3 -2 13 -4 23 -7 30 -7 41 -11 59 -18 9 -4 22 -8 30 -10 7 -1 18 -5 23
-8 13 -8 159 -3 195 7 14 4 34 8 45 10 11 2 21 4 23 5 4 4 69 18 102 23 8 2
20 5 25 8 6 3 19 5 30 5 11 -1 22 2 25 6 3 4 21 9 40 12 19 2 55 9 80 16 25 7
54 14 65 16 11 2 31 7 45 10 14 3 33 7 43 7 9 1 17 5 17 9 0 4 3 7 8 6 10 -4
100 32 152 60 59 32 176 125 220 174 l36 39 49 -21 c140 -61 362 -74 535 -32
47 11 102 24 123 28 20 3 40 10 43 15 3 5 9 7 14 4 5 -3 29 -1 52 6 44 11 65
16 108 25 14 3 43 10 65 15 22 5 49 12 60 14 11 3 34 8 50 10 17 3 44 10 60
15 17 5 44 11 60 14 17 2 30 5 30 6 0 2 34 10 60 13 12 2 26 7 33 11 7 4 12 5
12 2 0 -2 15 0 33 5 17 6 43 12 57 14 48 9 55 11 68 18 6 5 17 5 23 1 6 -3 14
-2 18 4 3 5 20 12 36 15 17 3 44 10 60 17 17 6 31 11 33 11 1 -1 15 5 31 13
16 9 31 12 35 9 3 -4 6 -1 6 5 0 7 5 12 11 12 16 0 185 85 224 113 123 88 182
136 237 190 69 68 171 196 204 257 10 19 23 38 27 41 5 3 8 9 8 13 -1 3 6 23
15 44 18 43 49 134 58 175 12 49 15 132 21 492 3 193 8 431 10 530 2 99 0 200
-6 225 -5 25 -12 59 -15 75 -7 38 -121 272 -144 295 -3 3 -12 19 -20 35 -14
28 -58 108 -122 220 -15 28 -38 70 -50 95 -31 62 -39 67 -73 48z"/>
<path d="M518 1559 c-15 -4 -29 -5 -31 -3 -2 2 -12 -11 -22 -29 -13 -25 -16
-44 -11 -70 9 -47 44 -67 114 -63 l51 2 0 -87 0 -88 -54 3 c-54 3 -54 3 -151
99 -54 54 -102 97 -109 97 -6 0 -26 -16 -45 -37 -27 -28 -35 -45 -35 -74 0
-35 8 -45 83 -116 110 -105 111 -135 3 -139 -64 -2 -91 11 -91 46 -1 35 -32
72 -63 73 -15 1 -27 6 -27 10 0 5 -5 5 -11 1 -7 -4 -25 -7 -41 -6 l-30 1 4
-88 c3 -75 7 -93 30 -128 15 -23 41 -47 57 -54 17 -8 31 -16 31 -19 0 -3 24
-5 52 -5 29 0 59 -3 66 -8 7 -6 12 -6 12 0 0 10 66 10 76 0 4 -4 13 -2 21 4 7
6 13 9 13 5 0 -3 15 0 34 8 28 12 37 12 45 2 10 -11 30 -13 87 -7 7 0 19 16
28 34 12 26 15 64 15 162 -1 79 3 130 9 134 18 11 133 3 148 -10 11 -9 14 -42
14 -144 0 -150 8 -172 68 -180 58 -7 102 29 102 83 0 11 10 4 31 -21 17 -20
37 -37 45 -37 8 0 14 -5 14 -11 0 -5 4 -7 10 -4 5 3 10 3 10 -2 0 -4 24 -8 53
-8 28 0 58 -3 65 -8 7 -6 12 -6 12 0 0 9 59 11 75 2 6 -3 21 -3 35 2 14 4 20
7 14 8 -18 2 -27 30 -33 100 l-6 64 -73 2 c-40 0 -77 6 -84 13 -16 16 -14 127
3 144 18 17 124 17 142 -1 6 -6 13 -33 14 -59 1 -26 2 -59 2 -73 1 -26 3 -27
62 -27 49 0 65 -4 85 -23 13 -12 24 -28 24 -36 0 -7 16 -31 36 -52 35 -39 68
-53 129 -56 17 -1 36 -4 43 -9 7 -4 12 -3 12 1 0 10 72 9 89 -1 6 -4 11 -2 11
4 0 6 4 9 8 6 34 -21 151 60 153 105 0 23 1 23 12 5 49 -79 105 -113 180 -111
20 0 37 -3 37 -8 0 -6 5 -6 13 -1 15 11 67 11 85 1 6 -5 12 -4 12 1 0 5 8 9
18 9 27 -1 72 14 72 24 0 5 5 9 10 9 21 0 66 61 62 83 -4 17 8 4 28 -30 26
-47 80 -83 129 -87 21 -1 43 -6 49 -10 7 -4 12 -3 12 2 0 9 42 8 57 -1 5 -3
15 -2 23 3 8 5 22 5 32 -1 10 -5 18 -6 18 -1 0 5 12 7 28 5 37 -6 43 -5 70 1
12 2 22 1 22 -4 0 -4 9 -6 21 -3 11 3 17 9 12 12 -20 15 -33 55 -33 106 0 37
-4 55 -12 56 -7 1 -68 2 -135 3 -85 1 -126 5 -135 14 -9 9 -13 50 -14 140 -1
130 -9 166 -41 176 -39 12 -73 14 -73 5 0 -5 -6 -9 -13 -9 -16 0 -50 -57 -42
-69 3 -5 1 -12 -5 -16 -5 -3 -10 -1 -10 5 0 18 -55 68 -83 75 -15 4 -27 10
-27 14 0 3 -54 5 -119 4 -136 -2 -174 -14 -216 -68 -14 -19 -25 -38 -25 -43 0
-5 -13 -20 -28 -34 -24 -21 -38 -25 -88 -24 l-59 1 0 85 0 85 62 0 c51 0 67 4
84 22 38 37 23 133 -20 133 -6 0 -11 4 -11 8 0 10 -21 9 -61 -2 -33 -9 -50
-40 -52 -97 -1 -24 -5 -49 -9 -55 -5 -7 -38 -11 -85 -11 -43 0 -94 -3 -113 -6
-36 -7 -102 -59 -113 -89 -9 -26 -19 -22 -49 22 -39 57 -77 70 -201 73 -65 1
-109 -2 -111 -8 -3 -5 -5 -5 -5 2 -2 25 -101 -39 -126 -81 -24 -40 -24 -40
-34 -16 -14 34 -36 60 -50 60 -6 0 -11 4 -11 9 0 18 -74 34 -164 35 l-91 1 -5
62 c-4 47 -10 67 -28 83 -12 12 -26 19 -31 15 -5 -3 -11 -1 -13 3 -1 5 -15 5
-30 1z m1259 -342 c10 -7 11 -142 1 -152 -2 -2 -13 -6 -24 -8 -10 -1 -25 -6
-31 -10 -7 -5 -13 -4 -13 1 0 5 -14 8 -32 6 -49 -6 -65 15 -63 86 1 44 6 64
18 73 18 12 125 15 144 4z m418 3 c4 -6 11 -8 16 -5 23 15 50 12 63 -6 16 -23
14 -125 -4 -143 -6 -6 -38 -12 -71 -12 -72 -2 -88 15 -87 86 0 55 11 77 40 83
13 2 26 5 30 6 4 0 10 -4 13 -9z"/>
<path d="M4984 1556 c-12 -9 -26 -28 -31 -43 -13 -38 -7 -151 8 -182 21 -42
74 -88 110 -97 52 -12 219 -12 220 0 1 17 1 79 0 99 -2 31 -49 62 -96 63 -24
0 -51 6 -58 13 -18 14 -28 59 -16 67 9 5 -15 60 -35 79 -18 17 -79 17 -102 1z"/>
<path d="M5323 1558 c-30 -15 -45 -58 -39 -114 2 -27 5 -49 5 -50 4 -4 59 4
69 10 7 4 12 3 12 -3 0 -19 57 9 70 34 45 83 -32 164 -117 123z"/>
<path d="M5573 1301 c-89 -89 -120 -114 -119 -98 1 19 -4 21 -56 22 -32 0 -58
-3 -58 -7 0 -5 -5 -8 -11 -8 -7 0 -19 -9 -29 -20 -14 -16 -17 -42 -18 -152 -1
-152 3 -175 24 -157 8 6 14 7 14 2 0 -7 60 -10 68 -3 2 3 18 7 32 9 13 1 41
57 33 65 -4 3 -3 6 1 6 5 0 20 -13 35 -29 26 -28 131 -68 131 -50 0 6 8 6 18
0 13 -7 23 -6 30 1 7 7 12 8 12 2 0 -11 40 -11 58 0 7 4 12 3 12 -2 0 -5 10
-8 23 -6 12 1 22 3 22 4 0 1 11 4 24 6 39 7 92 53 112 98 13 28 19 64 19 114
l0 72 -59 0 c-33 0 -63 -5 -66 -10 -4 -6 -10 -8 -14 -5 -10 5 -31 -39 -31 -64
0 -31 -28 -44 -91 -44 -47 0 -63 4 -73 19 -17 23 -7 46 37 83 40 34 117 111
118 120 8 49 3 62 -36 105 l-41 46 -121 -119z"/>
<path d="M3881 1405 c-1 -6 -25 -10 -58 -9 -67 3 -126 -10 -147 -31 -8 -8 -19
-15 -23 -15 -20 0 -55 -83 -57 -133 0 -29 -5 -55 -9 -58 -4 -3 -29 -7 -55 -8
-26 -1 -54 -3 -62 -6 -19 -6 -40 -40 -46 -74 -7 -36 -12 -39 -69 -42 -78 -3
-85 -1 -96 27 -9 25 -4 32 77 109 86 81 87 82 82 122 -4 30 -15 50 -44 76
l-38 35 -57 -57 c-32 -31 -80 -77 -107 -103 -28 -26 -48 -49 -46 -51 3 -2 -2
-10 -11 -17 -8 -7 -15 -19 -15 -26 0 -8 -4 -14 -8 -14 -5 0 -8 39 -7 88 1 103
-8 137 -42 159 -38 25 -72 22 -104 -8 l-29 -27 0 -145 0 -144 65 -1 c75 -1 84
-7 124 -85 25 -50 95 -112 114 -100 4 2 14 0 22 -7 9 -7 15 -8 20 0 4 7 12 7
26 0 10 -6 19 -7 19 -2 0 5 18 6 40 2 22 -4 40 -3 40 2 0 5 9 4 20 -2 11 -6
20 -7 20 -2 0 5 10 8 23 7 12 -1 32 5 45 13 12 8 22 12 22 9 0 -15 51 44 64
74 13 29 15 30 16 11 0 -35 27 -79 52 -87 41 -13 48 -13 54 -4 3 5 9 7 14 4 5
-3 19 4 32 17 21 21 23 32 24 153 1 71 2 135 3 141 2 17 43 31 84 29 20 -2 37
1 37 5 0 4 9 10 20 13 20 5 21 1 20 -106 -2 -120 1 -132 37 -188 23 -35 95
-75 114 -63 5 3 9 1 9 -3 0 -5 23 -8 50 -8 28 0 50 4 50 8 0 5 6 5 12 1 11 -7
36 -9 66 -5 4 1 7 39 7 86 l-1 85 58 0 c38 0 68 -6 85 -17 24 -16 27 -16 55 0
18 10 51 17 83 17 l53 0 3 79 c2 44 7 83 11 86 13 14 122 13 144 0 17 -11 20
-23 19 -79 -1 -80 -8 -87 -85 -85 -98 1 -90 9 -90 -86 0 -47 3 -85 8 -86 4 0
15 -2 24 -4 10 -2 20 1 24 6 3 5 13 5 22 1 18 -8 92 -7 127 1 11 3 25 6 31 6
16 1 84 65 84 79 0 22 16 12 17 -10 3 -34 24 -68 43 -68 9 0 20 -3 24 -7 10
-10 46 -11 46 -1 0 5 4 6 10 3 5 -3 19 9 30 27 17 28 19 48 17 151 -2 119 -2
119 -32 143 -25 19 -48 24 -75 14 -3 -2 -9 -2 -14 -1 -4 1 -14 -6 -22 -16 -13
-17 -13 -17 -14 2 -6 111 -77 187 -177 189 -29 1 -53 5 -53 9 0 5 -6 5 -12 0
-17 -10 -39 -10 -62 0 -10 5 -16 5 -13 0 3 -5 -11 -9 -31 -10 -70 -2 -111 -24
-142 -76 -18 -29 -20 -30 -21 -9 -3 49 -16 70 -52 81 -40 14 -70 8 -98 -18
-20 -19 -22 -31 -24 -163 -2 -79 -3 -147 -4 -152 -1 -4 -10 -6 -21 -3 -11 3
-20 2 -20 -3 0 -4 -18 -4 -40 0 -23 4 -43 3 -46 -2 -3 -5 -15 1 -25 14 -18 20
-20 36 -19 143 2 120 -3 149 -27 173 -19 19 -74 22 -101 5 -21 -13 -25 -13
-36 3 -8 10 -20 15 -29 11 -9 -3 -18 -1 -21 6 -2 7 -5 7 -5 2z"/>
<path d="M2704 1367 c-60 -52 -12 -157 65 -142 12 2 21 -1 21 -8 0 -8 3 -8 8
-2 11 15 32 17 32 3 0 -8 4 -7 10 3 10 17 7 104 -5 132 -17 41 -91 48 -131 14z"/>
<path d="M4316 863 c-31 -16 -45 -58 -34 -101 16 -59 102 -78 143 -32 17 18
18 18 38 -1 11 -10 26 -19 31 -20 6 0 20 -2 31 -4 10 -2 25 1 32 7 7 6 13 7
13 2 0 -5 9 5 20 21 14 21 20 47 20 87 l0 57 -66 -3 c-42 -2 -70 -9 -75 -17
-8 -12 -11 -12 -19 1 -12 19 -99 21 -134 3z"/>
</g>
</svg>
